#!OML:ASF E:\Mandelcareful walks\Project 1\Capture day 1\Session 1\Subject1.ASF
:FULLY-SPECIFIED
:DEGREES
2904
root 29.7932 15.7522 -3.4599 -535.963 -1.28658 -543.11
lowerback 44.5366 2.09549 2.48118
upperback 9.47381 -0.335273 -0.558857
thorax -10.1172 -1.74597 -1.44579
lowerneck -30.9492 3.53381 -1.65894
upperneck 25.6862 8.23035 -8.59637
head 14.3758 1.81332 -1.56648
rclavicle 3.18055e-015 -1.31198e-014
rhumerus -19.5156 9.02086 -82.9141
rradius 63.1066
rwrist -24.0054
rhand -15.2117 -24.6005
rfingers 7.12502
rthumb 10.9605 -54.2944
lclavicle 3.18055e-015 -1.31198e-014
lhumerus -21.494 -8.30702 82.5907
lradius 41.0319
lwrist 18.0162
lhand -23.1755 -14.6112
lfingers 7.12502
lthumb 3.27361 15.3434
rfemur -25.9037 -10.8587 21.0918
rtibia 51.3495
rfoot -26.4421 -8.67007
rtoes 6.61851
lfemur -44.0298 8.79005 -17.085
ltibia 50.3479
lfoot -9.83626 7.45752
ltoes -6.39429
2905
root 29.8028 15.7682 -3.52817 -536.01 -1.09221 -543.18
lowerback 44.4283 2.28046 2.71751
upperback 9.55394 -0.0413753 -0.825399
thorax -9.98063 -1.60876 -1.98818
lowerneck -30.8987 3.36822 -1.3509
upperneck 25.5637 7.85716 -8.64382
head 14.3086 1.69464 -1.71166
rclavicle 1.82882e-014 -2.42517e-014
rhumerus -19.5792 8.25885 -83.0339
rradius 63.0514
rwrist -23.9688
rhand -14.4616 -24.3151
rfingers 7.12502
rthumb 11.684 -53.9693
lclavicle 1.82882e-014 -2.42517e-014
lhumerus -21.3946 -10.2362 82.4353
lradius 41.6885
lwrist 19.1408
lhand -23.872 -13.9461
lfingers 7.12502
lthumb 2.60093 16.0178
rfemur -25.4295 -10.6739 21.0089
rtibia 51.0473
rfoot -26.4344 -8.79341
rtoes 6.66735
lfemur -43.7073 8.86492 -17.0866
ltibia 47.5124
lfoot -9.01777 8.22394
ltoes -5.22327
2906
root 29.8049 15.7782 -3.5984 -536.171 -0.868592 -543.226
lowerback 44.4384 2.43087 2.62734
upperback 9.64503 0.0555799 -0.863865
thorax -9.87673 -1.57768 -2.02523
lowerneck -31.0526 3.35393 -1.34141
upperneck 25.5256 7.89081 -8.82908
head 14.3386 1.67509 -1.78197
rclavicle -1.98785e-015 1.03368e-014
rhumerus -19.3187 8.25571 -83.0314
rradius 62.8775
rwrist -23.9641
rhand -15.3548 -24.7822
rfingers 7.12502
rthumb 10.8226 -54.4833
lclavicle -1.98785e-015 1.03368e-014
lhumerus -21.4582 -10.9331 82.272
lradius 42.3682
lwrist 19.3062
lhand -25.9358 -13.0769
lfingers 7.12502
lthumb 0.607752 16.902
rfemur -24.8517 -10.6664 20.9119
rtibia 50.7946
rfoot -26.2761 -8.83303
rtoes 6.2032
lfemur -43.174 8.85827 -17.0086
ltibia 44.7437
lfoot -8.41041 8.81433
ltoes -4.65362
2907
root 29.7907 15.7875 -3.66441 -536.032 -1.09652 -543.297
lowerback 44.0795 2.13689 2.91376
upperback 9.66694 -0.167886 -1.04602
thorax -9.76003 -1.65876 -2.27856
lowerneck -31.0397 3.43157 -1.20877
upperneck 25.5011 7.97754 -8.96246
head 14.3446 1.7056 -1.83972
rclavicle 1.19271e-015 4.37326e-015
rhumerus -19.2445 8.44079 -83.0817
rradius 62.8973
rwrist -24.0436
rhand -15.0812 -24.4956
rfingers 7.12502
rthumb 11.0864 -54.1828
lclavicle 1.19271e-015 4.37326e-015
lhumerus -21.4236 -11.2154 81.9449
lradius 42.7724
lwrist 19.1649
lhand -27.3848 -12.8589
lfingers 7.12502
lthumb -0.791707 17.1194
rfemur -24.6776 -11.0762 20.724
rtibia 50.6602
rfoot -26.2654 -8.41549
rtoes 7.02902
lfemur -43.0117 8.09428 -16.9556
ltibia 42.072
lfoot -8.03268 9.54057
ltoes -4.28911
2908
root 29.7816 15.8046 -3.7351 -536.005 -1.04896 -543.318
lowerback 43.9154 2.0201 2.97803
upperback 9.58146 -0.252893 -1.16189
thorax -9.81735 -1.67911 -2.40257
lowerneck -30.6493 3.50218 -1.38759
upperneck 25.3066 8.08635 -8.85075
head 14.1737 1.77249 -1.73761
rclavicle -5.1684e-015 1.59028e-015
rhumerus -19.331 8.74772 -83.1043
rradius 62.9372
rwrist -23.9766
rhand -14.0551 -24.1519
rfingers 7.12502
rthumb 12.0759 -53.7835
lclavicle -5.1684e-015 1.59028e-015
lhumerus -21.3981 -10.9678 81.8426
lradius 43.0527
lwrist 19.0774
lhand -25.506 -14.0279
lfingers 7.12502
lthumb 1.02282 15.9494
rfemur -24.3743 -11.0425 20.5331
rtibia 50.5557
rfoot -26.4434 -7.74731
rtoes 9.4137
lfemur -42.5643 7.428 -16.5596
ltibia 39.5471
lfoot -8.14611 10.0531
ltoes -2.56467
2909
root 29.7671 15.817 -3.81002 -535.919 -0.940512 -543.233
lowerback 43.5937 2.00627 3.0698
upperback 9.63608 -0.226867 -1.19764
thorax -9.6613 -1.65934 -2.50562
lowerneck -30.7164 3.48969 -1.52738
upperneck 25.1902 8.12982 -8.86143
head 14.1348 1.77827 -1.70742
rclavicle 7.15625e-015 1.59028e-015
rhumerus -19.085 8.77249 -83.0984
rradius 62.8772
rwrist -23.7432
rhand -15.3659 -24.9428
rfingers 7.12502
rthumb 10.8118 -54.6445
lclavicle 7.15625e-015 1.59028e-015
lhumerus -20.9556 -10.61 81.7148
lradius 43.2372
lwrist 19.031
lhand -23.1112 -15.195
lfingers 7.12502
lthumb 3.33575 14.7586
rfemur -24.1396 -11.1031 20.4736
rtibia 50.4651
rfoot -26.4808 -7.2324
rtoes 10.8715
lfemur -42.1345 6.52538 -15.8321
ltibia 37.2322
lfoot -8.46139 10.6555
ltoes 0.510644
2910
root 29.7503 15.8178 -3.8918 -535.947 -0.596948 -542.935
lowerback 43.1667 1.77841 3.69372
upperback 9.92014 -0.379393 -1.70849
thorax -9.2241 -1.73421 -3.32124
lowerneck -30.9528 3.57101 -1.17394
upperneck 24.9359 8.08005 -8.7964
head 14.0763 1.82406 -1.73941
rclavicle 1.90833e-014 -1.82882e-014
rhumerus -18.5786 8.65235 -83.8198
rradius 62.8084
rwrist -23.6324
rhand -15.0484 -24.466
rfingers 7.12502
rthumb 11.1181 -54.1515
lclavicle 1.90833e-014 -1.82882e-014
lhumerus -20.2826 -10.9596 80.7164
lradius 43.6595
lwrist 19.7292
lhand -22.5012 -15.5846
lfingers 7.12502
lthumb 3.92476 14.359
rfemur -23.7669 -11.1867 20.6652
rtibia 50.3501
rfoot -26.3585 -6.98969
rtoes 10.3186
lfemur -41.5936 6.14276 -15.0932
ltibia 35.1919
lfoot -8.30723 11.2112
ltoes 1.91581
2911
root 29.7286 15.8206 -3.97709 -536.045 -0.168946 -542.689
lowerback 43.0475 1.82824 3.70185
upperback 10.0126 -0.369607 -1.78653
thorax -9.08557 -1.7405 -3.41479
lowerneck -30.9865 3.6399 -1.2783
upperneck 24.6568 8.20238 -8.77089
head 13.9637 1.88589 -1.67967
rclavicle 6.55989e-015 2.5842e-015
rhumerus -18.32 9.03683 -83.8935
rradius 62.872
rwrist -23.8085
rhand -15.006 -24.364
rfingers 7.12502
rthumb 11.1589 -54.0473
lclavicle 6.55989e-015 2.5842e-015
lhumerus -20.0026 -11.2242 80.3436
lradius 44.3329
lwrist 20.6957
lhand -22.7255 -15.6046
lfingers 7.12502
lthumb 3.70814 14.3429
rfemur -23.3143 -11.3694 20.7688
rtibia 50.2368
rfoot -26.2074 -6.72101
rtoes 9.30102
lfemur -40.9821 5.95464 -14.4436
ltibia 33.5036
lfoot -8.21293 11.4953
ltoes 3.17062
2912
root 29.6978 15.8221 -4.06078 -536.02 0.161243 -542.623
lowerback 42.9236 -2.10017 -0.27015
upperback 9.79591 1.16441 -2.49275
thorax -9.29191 2.26265 -3.31092
lowerneck -31.0267 3.72663 -1.38413
upperneck 24.4742 8.37309 -8.80849
head 13.9009 1.9502 -1.63821
rclavicle 2.20651e-014 -1.74931e-014
rhumerus -18.1556 9.21144 -83.8905
rradius 62.9067
rwrist -23.7397
rhand -14.8068 -24.3355
rfingers 7.12502
rthumb 11.3511 -54.0083
lclavicle 2.20651e-014 -1.74931e-014
lhumerus -19.7589 -11.1454 80.1019
lradius 44.8752
lwrist 21.3412
lhand -22.5425 -16.2161
lfingers 7.12502
lthumb 3.88489 13.7283
rfemur -23.0174 -11.5044 20.649
rtibia 50.139
rfoot -26.1578 -6.47554
rtoes 9.02361
lfemur -40.5953 5.39216 -13.8565
ltibia 32.2583
lfoot -8.52554 11.995
ltoes 5.22152
2913
root 29.6574 15.8147 -4.14493 -535.978 0.461896 -542.532
lowerback 42.8247 -2.03443 -0.430819
upperback 9.76425 1.13621 -2.49411
thorax -9.29879 2.23478 -3.21408
lowerneck -31.1347 3.85708 -1.31599
upperneck 24.3685 8.5884 -9.033
head 13.9078 2.0132 -1.69307
rclavicle -2.22639e-014 3.25013e-014
rhumerus -17.9517 9.24624 -84.071
rradius 62.8502
rwrist -23.3464
rhand -14.795 -24.2667
rfingers 7.12502
rthumb 11.3624 -53.9388
lclavicle -2.22639e-014 3.25013e-014
lhumerus -19.5818 -11.2578 79.915
lradius 45.5394
lwrist 21.7264
lhand -22.8693 -16.6615
lfingers 7.12502
lthumb 3.56935 13.2883
rfemur -22.7481 -11.5582 20.5173
rtibia 50.0774
rfoot -26.196 -6.33854
rtoes 8.61227
lfemur -40.3802 4.85438 -13.4837
ltibia 31.4758
lfoot -8.7238 12.9798
ltoes 5.1215
2914
root 29.6148 15.8157 -4.23126 -535.994 0.793456 -542.285
lowerback 42.881 -1.86237 -0.6058
upperback 9.69749 1.25283 -2.32558
thorax -9.38578 2.26787 -2.99395
lowerneck -31.2073 3.90729 -1.4126
upperneck 24.2906 8.75736 -9.25694
head 13.9117 2.0354 -1.73237
rclavicle 7.95139e-016 -2.38542e-015
rhumerus -17.9295 9.4802 -83.9291
rradius 63.081
rwrist -23.3768
rhand -15.0166 -24.3565
rfingers 7.12502
rthumb 11.1488 -54.0403
lclavicle 7.95139e-016 -2.38542e-015
lhumerus -19.5669 -11.8511 80.0446
lradius 46.4712
lwrist 21.4782
lhand -24.2761 -15.8446
lfingers 7.12502
lthumb 2.21074 14.1237
rfemur -22.3772 -11.5317 20.532
rtibia 50.03
rfoot -26.2363 -6.11551
rtoes 8.0987
lfemur -40.2054 4.98924 -13.2599
ltibia 31.1002
lfoot -8.94343 13.4341
ltoes 5.43318
